<?xml version="1.0" standalone="no"?><!DOCTYPE svg PUBLIC "-//W3C//DTD SVG 1.1//EN" "http://www.w3.org/Graphics/SVG/1.1/DTD/svg11.dtd"><svg class="icon" height="512" viewBox="0 0 1024 1024" version="1.1" xmlns="http://www.w3.org/2000/svg"><path d="M762.88 527.36c-5.12-10.24-20.48-15.36-30.72-10.24L512 675.84l-220.16-158.72c-10.24-5.12-20.48 0-30.72 10.24-5.12 10.24-5.12 25.6 0 30.72l235.52 174.08c5.12 5.12 10.24 0 15.36 0h5.12l240.64-168.96c10.24-10.24 10.24-25.6 5.12-35.84z m-261.12-40.96c5.12 5.12 10.24 0 15.36 0h5.12l240.64-168.96c10.24-5.12 10.24-20.48 0-30.72-5.12-10.24-20.48-15.36-30.72-10.24l-220.16 153.6-220.16-158.72c-10.24-5.12-20.48 0-30.72 10.24-5.12 15.36-5.12 30.72 0 35.84l240.64 168.96z" fill="#A0A0A0" /></svg>